<svg fill="#FFFFFF" xmlns="http://www.w3.org/2000/svg"  viewBox="0 0 48 48" width="48px" height="48px"><path d="M 38.166016 7.6660156 C 36.877234 7.6660156 35.670623 8.0936945 34.705078 8.8144531 A 1.50015 1.50015 0 0 0 34.699219 8.8183594 L 24 16.878906 L 13.300781 8.8203125 L 13.298828 8.8183594 C 12.330442 8.087638 11.117804 7.6679688 9.8320312 7.6679688 C 6.674209 7.6679688 4.0820314 10.260146 4.0820312 13.417969 L 4.0820312 30.212891 A 1.50015 1.50015 0 1 0 7.0820312 30.212891 L 7.0820312 18.554688 L 12 22.259766 L 12 37.03125 L 8.4179688 37.03125 C 7.6631924 37.03125 7.0839844 36.452042 7.0839844 35.697266 A 1.50015 1.50015 0 1 0 4.0839844 35.697266 C 4.0839844 38.072489 6.042745 40.03125 8.4179688 40.03125 L 13.5 40.03125 A 1.50015 1.50015 0 0 0 15 38.53125 L 15 24.519531 L 16.287109 25.490234 A 1.50015 1.50015 0 1 0 18.09375 23.095703 L 15 20.763672 L 15 13.855469 L 23.097656 19.955078 A 1.50015 1.50015 0 0 0 24.902344 19.955078 L 33 13.855469 L 33 20.763672 L 24 27.546875 L 22.443359 26.373047 A 1.5005902 1.5005902 0 1 0 20.636719 28.769531 L 23.097656 30.623047 A 1.50015 1.50015 0 0 0 24.902344 30.623047 L 33 24.521484 L 33 38.529297 A 1.50015 1.50015 0 0 0 34.5 40.029297 L 39.583984 40.029297 C 41.959208 40.029297 43.917969 38.072489 43.917969 35.697266 L 43.917969 24.574219 A 1.50015 1.50015 0 1 0 40.917969 24.574219 L 40.917969 35.697266 C 40.917969 36.452042 40.338761 37.029297 39.583984 37.029297 L 36 37.029297 L 36 22.259766 L 40.916016 18.554688 L 40.916016 19.425781 A 1.50015 1.50015 0 1 0 43.916016 19.425781 L 43.916016 13.416016 C 43.916016 10.258193 41.323838 7.6660156 38.166016 7.6660156 z M 38.166016 10.666016 C 39.702193 10.666016 40.916016 11.879838 40.916016 13.416016 L 40.916016 14.796875 L 36 18.501953 L 36 11.595703 L 36.5 11.21875 C 36.954455 10.879509 37.548797 10.666016 38.166016 10.666016 z M 9.8320312 10.667969 C 10.467329 10.667969 11.038968 10.872539 11.492188 11.214844 A 1.50015 1.50015 0 0 0 11.494141 11.214844 L 12.001953 11.597656 A 1.50015 1.50015 0 0 0 12 11.689453 L 12 18.503906 L 7.0820312 14.796875 L 7.0820312 13.417969 C 7.0820312 11.881791 8.2958537 10.667969 9.8320312 10.667969 z"/></svg>